<svg xmlns="http://www.w3.org/2000/svg" height="40" viewBox="0 -960 960 960" width="40"><path d="M376.508-182.145v-96.435h489.956v96.435H376.508Zm0-249.739v-96.435h489.956v96.435H376.508Zm0-250.203v-96.435h489.956v96.435H376.508ZM181.759-143.16q-35.85 0-61.681-25.327-25.831-25.327-25.831-62.105 0-35.567 25.648-61.27 25.649-25.703 62.324-25.703 35.817 0 60.936 26.078 25.12 26.078 25.12 62.038 0 35.411-25.608 60.85t-60.908 25.439Zm0-249.739q-35.85 0-61.681-25.806-25.831-25.806-25.831-62.182 0-35.517 25.965-61.249 25.965-25.733 62.341-25.733 34.966 0 60.344 25.999 25.378 26 25.378 61.85 0 35.851-25.608 61.486-25.608 25.635-60.908 25.635Zm-.667-250.203q-35.575 0-61.21-25.786-25.635-25.786-25.635-61.997 0-35.352 25.769-60.987 25.77-25.635 61.87-25.635 35.242 0 60.815 25.882 25.574 25.882 25.574 61.567 0 35.686-25.804 61.321-25.803 25.635-61.379 25.635Z"/></svg>